<?xml version="1.0"?>
<svg xmlns="http://www.w3.org/2000/svg" xmlns:xlink="http://www.w3.org/1999/xlink" version="1.1" id="Layer_1" x="0px" y="0px" viewBox="0 0 512 512" style="enable-background:new 0 0 512 512;" xml:space="preserve" width="50" height="50" class=""><g><path style="fill:#80D8FF" d="M512,425.764H0v-97.26c0-38.557,31.257-69.814,69.814-69.814h372.372  c38.557,0,69.814,31.257,69.814,69.814V425.764z" data-original="#E84B67" class="" data-old_color="#54879F"/><path style="fill:#80D8FF" d="M442.186,258.69H275.153v167.074H512v-97.26C512,289.947,480.743,258.69,442.186,258.69z" data-original="#CB435A" class="" data-old_color="#54879F"/><path style="fill:#D4CFC7" d="M167.261,214.178c-8.747,0-16.787-5.771-19.279-14.605l-18.213-64.529  c-3.007-10.654,3.192-21.727,13.846-24.734c10.654-3.008,21.727,3.192,24.734,13.846l18.213,64.529  c3.007,10.654-3.192,21.727-13.846,24.734C170.895,213.932,169.063,214.178,167.261,214.178z" data-original="#FBC373" class="" data-old_color="#D3CEC6"/><circle style="fill:#1F0A04" cx="146.424" cy="120.283" r="34.047" data-original="#381C19" class="active-path" data-old_color="#381C19"/><path style="fill:#D4CFC7" d="M344.738,214.178c-1.803,0-3.635-0.245-5.454-0.759c-10.654-3.007-16.852-14.081-13.846-24.734  l18.213-64.529c3.007-10.654,14.085-16.852,24.734-13.846c10.654,3.007,16.852,14.081,13.846,24.734l-18.213,64.529  C361.525,208.407,353.485,214.178,344.738,214.178z" data-original="#D8AA64" class="" data-old_color="#EEEAE4"/><circle style="fill:#1F0A04" cx="365.564" cy="120.283" r="34.047" data-original="#1F0A04" class=""/><path style="fill:#29A6DD" d="M452.569,425.764H59.43v-119.73c0-62.467,50.639-113.106,113.106-113.106h166.927  c62.467,0,113.106,50.639,113.106,113.106L452.569,425.764L452.569,425.764z" data-original="#D58C89" class="" data-old_color="#80D8FF"/><path style="fill:#72CAF0" d="M255.999,425.764H59.43v-119.73c0-62.467,50.639-113.106,113.106-113.106h83.463L255.999,425.764  L255.999,425.764z" data-original="#F19D9A" class="" data-old_color="#77CEF4"/><path style="fill:#1F0A04" d="M311.602,360.989c-3.362,0-6.768-0.846-9.899-2.628l-41.455-23.604  c-2.622-1.494-5.881-1.493-8.504-0.001l-41.452,23.59c-9.618,5.473-21.858,2.115-27.334-7.507  c-5.475-9.621-2.114-21.858,7.507-27.334l41.452-23.59c14.853-8.453,33.309-8.452,48.164,0.005l41.455,23.604  c9.619,5.477,12.977,17.716,7.5,27.335C325.344,357.349,318.571,360.989,311.602,360.989z" data-original="#1F0A04" class=""/><path style="fill:#1F0A04" d="M255.999,333.637c-1.471,0-2.942,0.373-4.255,1.118l-41.452,23.59  c-9.618,5.473-21.858,2.115-27.334-7.507c-5.475-9.621-2.114-21.858,7.507-27.334l41.452-23.59  c7.427-4.226,15.754-6.339,24.081-6.339V333.637z" data-original="#381C19" class="active-path" data-old_color="#381C19"/></g> </svg>
